{"title":"BangBus - Shaggy And The Hialeah CHONGAS!!! [720p] {2bUnique}","uid":9891012,"size":1720891242,"categoryP":"porn","categoryS":"movies","magnet":"?xt=urn:btih:5a1cbd820f9eee398637c6d4bd5dc75d72673c7a&amp;dn=BangBus+-+Shaggy+And+The+Hialeah+CHONGAS%21%21%21+%5B720p%5D+%7B2bUnique%7D&amp;tr=udp%3A%2F%2Ftracker.openbittorrent.com%3A80&amp;tr=udp%3A%2F%2Fopen.demonii.com%3A1337&amp;tr=udp%3A%2F%2Ftracker.coppersurfer.tk%3A6969&amp;tr=udp%3A%2F%2Fexodus.desync.com%3A6969","seeders":2,"leechers":3,"uploader":"2bUnique","files":1,"time":1396644530,"description":"\nDescription\n\n &lt;a href=&quot;\nhttp://www.bangbus.com/t3/pps=ltbp1/porn-videos/shaggy-and-the-hialeah-chongas_bb5748.html&quot; rel=&quot;nofollow&quot; target=&quot;_NEW&quot;&gt;\nhttp://www.bangbus.com/t3/pps=ltbp1/porn-videos/shaggy-and-the-hialeah-chongas_bb5748.html&lt;/a&gt;\n\nSummary:\nthis week were in hialeah checking out the scenery and there is a lot of people there i would of never guessed but to each its own lol, any who we come across a lot of people in the malls and shopping centers, but they seem to be pretty skeptical until of course i pull out the cash then they all seem so intrigued and helpful so what the hell i throw the bait and i do catch these 2 cuties (chonga's) and in they come with us and they seem to be down for anything at least one of them does, so i cant help myself and i just ask them to just have fun with us and boy do they,Guy's don't miss this update it was great!!!STAY TUNED!!!!!\n\nTitle: Shaggy and the hialeah CHONGAS!!! \nProducer : Bangbros\nProd. Date: Wed, May 13, 2009\n\nFormat : MPEG-4\nFormat profile : Base Media\nCodec ID : isom\nFile size : 1.60 GiB\nDuration : 1h 14mn\nOverall bit rate mode : Variable\nOverall bit rate : 3 092 Kbps\nWriting application : Lavf52.31.0\n\nVideo\nID : 1\nFormat : AVC\nFormat/Info : Advanced Video Codec\nFormat profile : &lt;a class=&quot;__cf_email__&quot; href=&quot;/cdn-cgi/l/email-protection&quot; data-cfemail=&quot;bff7d6d8d7fff38c918d&quot;&gt;[email&amp;#160;protected]&lt;/a&gt;&lt;script cf-hash='f9e31' type=&quot;text/javascript&quot;&gt;\n/* &lt;![CDATA[ */!function(){try{var t=&quot;currentScript&quot;in document?document.currentScript:function(){for(var t=document.getElementsByTagName(&quot;script&quot;),e=t.length;e--;)if(t[e].getAttribute(&quot;cf-hash&quot;))return t[e]}();if(t&amp;&amp;t.previousSibling){var e,r,n,i,c=t.previousSibling,a=c.getAttribute(&quot;data-cfemail&quot;);if(a){for(e=&quot;&quot;,r=parseInt(a.substr(0,2),16),n=2;a.length-n;n+=2)i=parseInt(a.substr(n,2),16)^r,e+=String.fromCharCode(i);e=document.createTextNode(e),c.parentNode.replaceChild(e,c)}}}catch(u){}}();/* ]]&gt; */&lt;/script&gt;\nFormat settings, CABAC : Yes\nFormat settings, ReFrames : 5 frames\nCodec ID : avc1\nCodec ID/Info : Advanced Video Coding\nDuration : 1h 14mn\nBit rate : 3 023 Kbps\nWidth : 1 280 pixels\nHeight : 768 pixels\nDisplay aspect ratio : 1.667\nFrame rate mode : Constant\nFrame rate : 29.970 fps\nColor space : YUV\nChroma subsampling : 4:2:0\nBit depth : 8 bits\nScan type : Progressive\nBits/(Pixel*Frame) : 0.103\nStream size : 1.57 GiB (98%)\nLanguage : English\n\nAudio\nID : 2\nFormat : AAC\nFormat/Info : Advanced Audio Codec\nFormat profile : LC\nCodec ID : 40\nDuration : 1h 14mn\nBit rate mode : Variable\nBit rate : 61.9 Kbps\nChannel(s) : 2 channels\nChannel positions : Front: L R\nSampling rate : 44.1 KHz\nCompression mode : Lossy\nStream size : 32.8 MiB (2%)\nLanguage : English","torrent":{"xt":"urn:btih:5a1cbd820f9eee398637c6d4bd5dc75d72673c7a","amp;dn":"BangBus+-+Shaggy+And+The+Hialeah+CHONGAS%21%21%21+%5B720p%5D+%7B2bUnique%7D","amp;tr":["udp%3A%2F%2Ftracker.openbittorrent.com%3A80","udp%3A%2F%2Fopen.demonii.com%3A1337","udp%3A%2F%2Ftracker.coppersurfer.tk%3A6969","udp%3A%2F%2Fexodus.desync.com%3A6969"],"infoHash":"5a1cbd820f9eee398637c6d4bd5dc75d72673c7a","infoHashBuffer":{"type":"Buffer","data":[90,28,189,130,15,158,238,57,134,55,198,212,189,93,199,93,114,103,60,122]},"announce":[],"urlList":[]}}